<!DOCTYPE svg PUBLIC "-//W3C//DTD SVG 1.1//EN" "http://www.w3.org/Graphics/SVG/1.1/DTD/svg11.dtd">
<!-- Uploaded to: SVG Repo, www.svgrepo.com, Transformed by: SVG Repo Mixer Tools -->
<svg fill="#000000" width="800px" height="800px" viewBox="-51.2 -51.2 614.40 614.40" xmlns="http://www.w3.org/2000/svg" transform="rotate(0)">
<g id="SVGRepo_bgCarrier" stroke-width="0" transform="translate(89.6,89.6), scale(0.65)">
<rect x="-51.2" y="-51.2" width="614.40" height="614.40" rx="307.2" fill="#ffffff" strokewidth="0"/>
</g>
<g id="SVGRepo_tracerCarrier" stroke-linecap="round" stroke-linejoin="round" stroke="#CCCCCC" stroke-width="3.072"/>
<g id="SVGRepo_iconCarrier">
<title>ionicons-v5-j</title>
<path d="M256,48C141.31,48,48,141.31,48,256s93.31,208,208,208,208-93.31,208-208S370.69,48,256,48Zm2,96a72,72,0,1,1-72,72A72,72,0,0,1,258,144Zm-2,288a175.55,175.55,0,0,1-129.18-56.6C135.66,329.62,215.06,320,256,320s120.34,9.62,129.18,55.39A175.52,175.52,0,0,1,256,432Z"/>
</g>
</svg>