<svg viewBox="0 0 18 16" xmlns="http://www.w3.org/2000/svg"><path d="m14.7707636 5.18060613c-.1863637-.06414646-.3794747-.12483939-.5783096-.18223864.0326809-.13337733.0626755-.26502788.0893447-.39444002.4377692-2.12498767.1515404-3.83689254-.8258459-4.40052446-.9371908-.54044839-2.4698948.02305563-4.01785203 1.37019542-.14885438.12954005-.29812449.2666907-.44733045.41042866-.09941755-.09510049-.19867502-.18700325-.29767671-.27490886-1.62230449-1.44044955-3.2484143-2.04747468-4.22484122-1.4822119-.93629541.54201527-1.21357059 2.15136893-.8195143 4.16523547.03805299.19451793.08253341.39316093.13283371.59512957-.23014064.06532962-.45231893.13497619-.66490404.2090676-1.90197796.66311331-3.11666776 1.70237561-3.11666776 2.78036243 0 1.11335383 1.30397043 2.2300651 3.28502825 2.9071844.15633703.0534341.31855789.1039583.48573523.1519242-.05426548.218437-.10146398.432493-.14108387.6412729-.37573329 1.9789153-.08230957 3.5502479.85149161 4.0888417.96453137.5562132 2.58328632-.015509 4.15954352-1.393347.12458358-.1089147.2496148-.2244167.37486989-.3454827.16234884.156337.32444169.3042959.4856713.4430774 1.52678827 1.3138514 3.03474187 1.8443869 3.96767967 1.3042903.963572-.5578122 1.2767258-2.245798.8701663-4.2995082-.03105-.1568487-.0671843-.317087-.1077634-.4801712.1136793-.0336083.22528-.0683036.3340988-.1043739 2.0594982-.6823637 3.399475-1.78548474 3.399475-2.9137079 0-1.08188802-1.2538621-2.12815338-3.1941487-2.79609527zm-.446691 4.98132827c-.0982342.0325208-.1990267.0639546-.3017378.0944289-.2273586-.71977705-.5342128-1.48515383-.9097222-2.27592049.3583376-.77193214.6533282-1.52752377.8743233-2.24263219.1837736.05317826.362143.10926645.534021.16845644 1.6624359.57229777 2.6765002 1.41844915 2.6765002 2.07043434 0 .69448309-1.0951586 1.59601916-2.8733845 2.185233zm-.7378442 1.4620661c.1797763.9081234.2054541 1.7291726.0863706 2.371021-.106996.5767427-.3221713.9612697-.5882224 1.1152725-.5661582.3277033-1.7768827-.0982663-3.082612-1.2218847-.14968572-.1288047-.30045871-.266339-.45171134-.4118998.50620074-.553623 1.01211364-1.1972301 1.50587514-1.9120188.8684715-.0770652 1.6889772-.2030558 2.433057-.3750617.036646.1478311.0691989.2928161.097243.4345715zm-7.46158373 3.4296617c-.55314338.1953493-.99369467.2009453-1.26000165.0473903-.56666976-.32684-.80224654-1.5884725-.48090664-3.2808392.03680588-.1938145.08061478-.3929051.13110694-.5964087.73592563.1627325 1.55041949.2798334 2.42096955.3504073.4970872.6994396 1.01761373 1.3423432 1.54216938 1.9052716-.11460667.1106414-.22876569.2159747-.34228506.3152322-.69700926.6092636-1.39548944 1.0415327-2.01105252 1.2589465zm-2.59140859-4.8959809c-.87598622-.29940341-1.59940873-.68853519-2.09528075-1.11316179-.44557172-.38158512-.67053205-.76042021-.67053205-1.06781811 0-.65415965.97527574-1.48854339 2.60186517-2.05566083.19736391-.06881516.40396926-.13366512.61837707-.19458188.22480043.73125694.51969511 1.49580222.87557052 2.26891745-.36048014.78459509-.65956384 1.56132386-.88657071 2.30115056-.15285151-.0439367-.30093839-.0901759-.44342925-.1388454zm.86866341-5.91292289c-.33761636-1.72543127-.11339151-3.02703538.45084798-3.35365154.6010134-.34794503 1.93002202.14815083 3.33075583 1.391908.08953642.07949558.17942463.16270051.26956863.24878342-.52196547.56046617-1.03772737 1.19854126-1.53040166 1.89385571-.84490433.07831242-1.65367426.20411113-2.39727443.37256755-.04675083-.18805851-.08816143-.37282336-.12349635-.55346314zm7.74925141 1.91348978c-.1777617-.30704606-.3602562-.60683326-.5463001-.89843427.5731931.07246056 1.1223712.16864828 1.6381012.28635674-.1548342.49622377-.3478171 1.0150555-.5749839 1.54693397-.1629562-.30938041-.3353139-.62131899-.5168172-.93485644zm-3.16012486-3.07797521c.35398877.38350378.70848912.81167986 1.05716966 1.27624609-.35136665-.01659621-.70708216-.02523009-1.06573949-.02523009-.35526786 0-.70836119.00844202-1.0575534.02475044.34903228-.46024931.70660245-.8878498 1.06612323-1.27576644zm-3.1803665 3.08328344c-.17756996.30790945-.34672989.61815324-.50712804.92897263-.22348937-.5300238-.41468165-1.05122185-.5708588-1.55448064.51256418-.11470258 1.05915221-.208492 1.62869994-.27957754-.18866609.2942871-.37266349.59628075-.5507131.9050216zm.56711745 4.58612068c-.58844632-.0656494-1.14325251-.1546102-1.65568878-.2661471.15867138-.51224439.35408467-1.04457049.58230667-1.58601021.16081386.31059558.33064532.6209673.5093025.92954828h.00003197c.18198284.31436883.37052101.62231013.56404764.92260903zm2.63448203 2.1775583c-.36374183-.3924574-.72655628-.8265812-1.08089677-1.2935457.34397979.0134944.69467487.0204015 1.05109396.0204015.36617207 0 .72815509-.0082501 1.08444629-.0241109-.34983183.4753746-.70305303.9101699-1.05464348 1.2972551zm3.66303188-4.05731196c.2401176.54729151.4425339 1.07683565.6032518 1.58035026-.5208782.1188276-1.083263.2145357-1.6758024.2856532.1864916-.2955343.3705849-.6004698.5514805-.91413518.1830061-.31734267.3567708-.63516505.5210701-.95186828zm-1.1858463.56846049c-.2808246.48691832-.569132.95174037-.8618202 1.39050107-.5330937.0381168-1.08383872.0577509-1.64516819.0577509-.55905916 0-1.10286526-.0173637-1.62652547-.0513555-.30448793-.4445165-.59906281-.91071352-.87809677-1.39270749h.00006396c-.27829847-.48068273-.53443665-.96542673-.76652791-1.44745249.2320273-.48314512.48749396-.96843263.76419356-1.44825207l-.00006395.00009593c.27743506-.48109851.56941981-.94502521.87109363-1.38675967.53427678-.04038732 1.08214393-.06146036 1.63583095-.06146036h.000032c.55618119 0 1.10475179.02123291 1.63886859.06197201.2970692.43850474.5870713.9009285.8655937 1.38209098.2816881.48656665.5404484.96862441.7744582 1.4414089-.2333063.4809066-.491491.96782505-.7719321 1.45416779zm1.5831643-8.57010886c.6015891.34692176.8355349 1.74605664.4575632 3.58075435-.0241109.1170689-.0512595.23631226-.0807427.35715448-.7453269-.17197393-1.5546725-.29994709-2.4020389-.37944266-.4936337-.70295704-1.0051746-1.34202342-1.51863415-1.89529471.13804604-.13280172.27590021-.25943185.41317874-.37893102 1.32629061-1.15422072 2.56589071-1.60992926 3.13067381-1.28424044zm-4.09015269 5.50422104c.88596309 0 1.60420529.71821021 1.60420529 1.60420529 0 .88596309-.7182422 1.60420541-1.60420529 1.60420541-.88596316 0-1.60420533-.71824232-1.60420533-1.60420541 0-.88599508.71824217-1.60420529 1.60420533-1.60420529z"/></svg>